<?xml version="1.0" encoding="utf-8" ?><svg xmlns="http://www.w3.org/2000/svg" xmlns:xlink="http://www.w3.org/1999/xlink" width="512" height="512" viewBox="0 0 13964 13964"><path fill="#1B9548" transform="scale(13.6363 13.6363)" d="M883.832 506.936C887.355 507.922 890.835 508.312 894.476 508.644C894.95 533.122 895.681 550.976 893.348 575.787C885.06 662.306 847.475 743.401 786.815 805.647C714.228 881.106 620.785 923.048 515.385 922.246C413.313 921.469 327.299 884.278 254.224 813.78C181.959 743.654 140.163 647.927 137.858 547.257C137.715 539.079 137.884 530.478 137.559 522.369C140.752 523.259 145.388 524.694 148.518 525.319C148.861 548.303 148.878 568.886 152.113 591.818C164.142 677.09 204.764 750.975 266.257 810.596C298.021 841.291 335.237 865.785 375.991 882.82C338.239 806.602 272.555 741.334 197.914 701.066C220.761 706.508 242.893 714.602 263.861 725.182C323.044 754.586 363.591 795.364 398.406 851.212C408.823 867.923 416.286 882.989 425.569 900.071C443.939 905.563 464.907 908.724 484.01 910.397C492.679 911.157 502.141 911.118 510.536 911.939C493.961 885.327 480.258 867.098 461.104 842.871C403.784 770.364 331.674 714.02 240.105 693.389C226.218 690.261 210.577 688.526 197.611 685.385C216.315 683.867 232.735 683.427 251.506 684.97C326.293 691.119 393.481 729.044 449.89 777.025C483.512 806.138 513.533 839.166 539.313 875.406C547.235 886.373 554.831 898.073 562.445 909.335C568.471 907.816 575.032 907.095 581.134 905.808C592.202 903.473 603.964 901.204 614.924 898.422C574.834 832.399 507.181 755.001 440.328 715.684C411.859 699.031 381.081 686.686 348.994 679.052C310.288 669.563 263.136 666.855 223.576 670.778C221.441 671.044 212.832 672.384 211.183 671.571C212.895 670.347 215.344 669.767 217.41 669.114C265.366 656.017 307.994 652.052 357.395 660.972C487.717 684.504 588.151 779.131 666.957 879.727C671.669 877.244 676.781 875.054 681.348 872.539C691.342 867.035 701.608 860.944 711.151 854.705C776.318 811.817 827.239 750.497 857.424 678.56C845.628 682.652 830.2 693.768 820.146 701.633C763.544 745.911 715.322 808.563 679.898 870.414C673.355 861.82 664.997 851.934 658.98 843.358C662.447 836.163 675.824 817.278 680.834 810.127C716.922 758.619 768.254 706.207 828.944 684.892C838.431 681.64 848.141 679.08 857.999 677.234C873.818 641.52 882.764 591.165 884.413 552.385C884.998 538.615 884.287 520.875 883.832 506.936Z"/><path fill="#21A34E" transform="scale(13.6363 13.6363)" d="M223.576 670.778C221.441 671.044 212.832 672.384 211.183 671.571C212.895 670.347 215.344 669.767 217.41 669.114L218.036 670.154L218.77 670.131C221.045 670.078 221.591 669.907 223.576 670.778Z"/><path fill="#1B9548" transform="scale(13.6363 13.6363)" d="M327.157 412.053C330.405 409.638 336.896 402.55 340.237 399.331C356.098 384.049 368.637 374.538 390.029 368.914C409.363 377.381 434.273 415.514 439.82 435.895C442.695 446.461 441.262 479.869 441.134 491.629C468.529 488.727 497.897 486.603 525.433 484.499C555.907 482.009 586.4 479.747 616.908 477.712C630.796 476.695 644.695 475.831 658.602 475.121C666.519 474.746 676.479 474.859 684.052 473.956C692.927 472.911 699.676 488.677 710.868 472.363C735.838 472.922 761.245 471.454 786.232 472.656C818.456 474.207 853.19 477.878 884.731 484.306C906.527 488.748 928.793 497.529 949.582 505.217C958.34 508.696 972.725 514.601 981.089 519.167C978.92 520.227 978.815 520.203 976.347 520.235C971.761 519.378 960.984 516.03 955.933 514.717C943.896 511.587 931.762 508.845 919.549 506.493C881.575 499.031 832.438 495.929 793.919 496.039C719.136 496.252 642.4 500.953 567.854 507.369L442.639 518.153C326.467 528.194 157.671 541.696 55.5645 476.764C96.1417 492.014 138.833 500.897 182.126 503.097C194.79 503.855 210.908 502.958 222.462 503.941L222.929 503.985C223.237 479.691 223.365 460.326 221.377 436.1C244.54 426.43 276.703 418.641 301.537 414.553C308.749 413.366 319.616 412.679 327.157 412.053ZM363.898 497.531C375.395 497.091 386.875 496.294 398.322 495.141C404.176 494.598 411.942 493.614 417.621 493.4C418.492 493.21 420.242 493.051 420.348 492.468C421.937 483.718 421.683 451.404 420.42 444.026C405.901 437.845 380.36 433.137 364.549 429.489C362.331 450.058 364.438 476.594 363.898 497.531ZM263.364 468.15C275.791 466.089 273.657 449.282 266.821 442.072C264.416 441.805 262.555 441.496 260.13 441.682C257.567 441.884 255.696 441.877 253.997 443.993C249.813 449.205 247.743 460.954 253.72 465.621C256.669 467.925 259.791 467.849 263.364 468.15Z"/><path fill="#134F47" transform="scale(13.6363 13.6363)" d="M653.571 55.6292C653.417 51.5166 653.556 44.6225 658.678 43.5791C664.637 45.8148 660.21 54.5744 658.545 58.5413C658.839 59.2638 658.979 59.8677 659.447 60.4C658.868 64.1918 658.386 66.6472 657.45 70.3641C660.473 72.1737 667.111 76.1983 665.49 80.1768C659.934 85.0477 659.405 78.7056 658.021 89.0157C673.832 93.2806 690.434 98.7363 706.346 101.97C712.596 103.24 722.394 102.899 729.062 103.212C736.362 103.599 743.606 104.702 750.69 106.504C764.563 109.983 772.504 115.455 785.187 120.812C795.569 124.841 806.493 127.126 817.261 129.85C822.177 131.094 826.972 132.473 831.745 134.192C835.643 135.596 845.19 142.396 848.731 140.414C850.612 134.013 836.137 124.468 861.213 126.95C860.923 124.283 860.661 121.745 860.23 119.09C862.201 115.59 866.968 106.298 869.789 104.549C876.51 103.842 873.82 110.59 871.952 113.888L873.568 118.122C871.717 122.614 870.087 125.613 867.777 129.836C876.957 132.545 882.335 138.998 870.819 143.734C870.164 144.002 869.508 144.265 868.849 144.524L873.251 149.284C872.151 152.584 871.79 153.774 870.078 156.83C867.777 156.69 865.397 156.508 863.1 156.438C862.275 159.396 861.034 163.736 858.051 164.852C847.803 168.685 849.515 159.543 851.556 154.178C840.737 147.815 827.47 144.928 815.196 142.945C800.173 140.518 795.518 137.857 781.395 145.08C793.319 188.856 792.698 220.113 786.077 265.396C784.85 273.784 783.309 288.148 781.305 295.964L775.304 294.117C776.627 285.82 778.295 276.58 779.252 268.309C771.524 269.988 765.199 270.806 757.356 271.601C756.514 275.253 755.613 279.703 754.418 283.176C752.547 282.667 750.505 282.063 748.624 281.654L750.869 271.403C743.106 268.909 735.039 265.76 727.442 262.709C710.37 255.855 692.673 249.574 675.794 242.331C673.48 247.463 671.2 252.61 668.953 257.772L663.994 255.232L670.529 240.695C664.419 237.957 658.144 234.962 652.049 232.317C650.15 236.836 644.39 249.428 639.973 251.572L638.985 251.212C638.143 249.185 639.163 246.895 639.987 244.917C656.971 204.159 688.533 162.377 723.377 135.171C717.813 132.095 711.305 128.904 707.239 123.908C705.898 122.259 703.378 117.638 701.959 116.612C689.429 107.545 665.144 100.569 650.308 96.8392C649.84 101.827 649.718 106.3 645.612 109.837C643.076 112.022 639.123 112.309 637.169 109.266C634.162 104.583 637.047 98.4095 639.467 94.234C636.076 92.8697 631.259 91.2974 632.828 86.2672C633.821 83.085 637.543 79.1064 639.895 76.6089C642.552 76.4164 645.841 76.5757 648.456 77.0759C649.737 77.4069 650.992 77.7547 652.288 78.0183L652.396 77.5755C651.036 76.8863 649.779 76.7082 648.291 76.3813C645.667 75.5614 641.989 75.9928 639.301 76.4488C630.22 75.4617 632.704 64.4022 648.495 68.1615C650.026 62.8482 650.705 60.3222 653.571 55.6292ZM698.805 188.621C704.507 189.946 707.5 190.79 712.081 194.66C707.113 194.12 702.831 193.745 698.028 192.329C690.738 207.064 684.612 223.317 677.846 238.523L734.292 261.007C739.862 263.197 746.592 265.637 751.991 267.993C755.901 252.252 761.008 235.089 763.965 219.336C759.939 218.009 757.139 217.516 754.08 214.645L753.806 213.651C756.69 211.931 761.825 214.761 764.722 216.04C767.844 199.774 769.265 190.813 769.003 173.91C753.21 166.655 736.606 162.005 720.187 156.906C711.42 167.84 705.422 176.255 698.805 188.621ZM781.074 222.335L782.871 222.309C786.159 217.141 782.751 186.573 782.071 179.516C780.132 178.518 775.626 176.326 774.005 175.248C773.314 188.497 772.666 204.953 769.675 217.945C773.543 219.58 777.034 221.125 781.074 222.335ZM684.435 183.682C686.524 184.372 688.251 184.954 690.296 185.794C692.272 186.356 692.194 186.68 693.848 186.208C700.088 177.963 708.732 164.748 714.413 155.875L710.489 153.399C701.987 161.825 691.196 173.737 684.435 183.682ZM717.122 152.408C720.568 149.968 730.207 142.287 730.58 138.179C729.761 137.235 729.651 137.35 728.404 137.011C725.556 139.336 714.986 147.564 714.406 150.462C715.571 151.65 715.705 151.641 717.122 152.408ZM773.007 263.67C775.56 262.461 778.025 261.354 780.464 259.921C782.534 250.838 783.469 236.88 783.661 227.479C779.935 226.145 772.578 223.603 769.293 221.795C767.714 228.129 758.919 260.652 760.957 264.503C764.438 266.813 769.322 264.788 773.007 263.67ZM774.058 170.52L781.686 174.132C780.711 166.815 779.519 150.403 773.499 145.522C772.105 144.393 770.242 144.458 768.45 144.364C771.597 154.341 772.942 159.915 774.058 170.52ZM738.54 139.3C733.484 143.92 728.368 148.473 723.193 152.96C734.41 156.549 746.53 160.196 757.424 164.489C761.294 165.868 765.138 167.321 768.952 168.847C767.369 159.944 765.909 153.497 763.399 144.801C755.189 142.945 746.775 140.94 738.54 139.3ZM681.488 187.247C671.558 200.595 661.817 213.536 654.425 228.55C657.052 229.673 664.933 233.293 667.213 234.004L672.861 236.488C678.744 221.092 684.491 205.84 691.873 191.071C688.529 189.713 684.954 188.145 681.488 187.247Z"/><path fill="#215D50" transform="scale(13.6363 13.6363)" d="M652.396 77.5755C654.549 78.1047 656.432 78.489 657.661 80.4125L657.114 80.8245C655.496 80.3681 653.499 79.111 652.288 78.0183L652.396 77.5755Z"/><path fill="#134F47" transform="scale(13.6363 13.6363)" d="M720.145 181.04C725.596 182.397 753.68 190.636 756.308 194.36C756.819 197.174 756.136 198.442 754.877 201.036C744.965 198.855 727.554 193.375 717.877 189.921C718.592 186.7 719.195 184.2 720.145 181.04Z"/><path fill="#1B9548" transform="scale(13.6363 13.6363)" d="M715.494 195.443C719.093 196.052 722.67 196.784 726.219 197.635C731.152 198.827 749.186 203.06 751.394 206.678C751.509 208.475 750.79 209.556 750.029 211.215C742.857 210.429 721.051 203.797 713.322 201.43C713.905 199.277 714.669 197.504 715.494 195.443Z"/><path fill="#1B9548" transform="scale(13.6363 13.6363)" d="M726.476 208.194C733.157 209.767 744.374 212.238 749.847 216.152C741.888 216.754 730.543 212.822 723.077 210.18C723.894 209.622 725.559 208.723 726.476 208.194Z"/><path fill="#21A34E" transform="scale(13.6363 13.6363)" d="M723.077 210.18C719.37 208.681 714.839 207.093 712.443 203.851L712.885 203.487C715.228 203.905 723.542 207.212 726.476 208.194C725.559 208.723 723.894 209.622 723.077 210.18Z"/><path fill="#215D50" transform="scale(13.6363 13.6363)" d="M857.573 132.702L857.918 133.219C856.41 134.218 855.455 134.04 853.487 134.263L853.252 133.82C854.349 132.89 856.049 132.902 857.573 132.702Z"/><defs><linearGradient id="gradient_0" gradientUnits="userSpaceOnUse" x1="550.21161" y1="418.45612" x2="752.39679" y2="415.85602"><stop offset="0" stop-color="#0D5347"/><stop offset="1" stop-color="#1B484C"/></linearGradient></defs><path fill="url(#gradient_0)" transform="scale(13.6363 13.6363)" d="M611.861 427.017C596.582 437.195 578.5 438.241 563.348 427.061C545.984 414.25 544.768 386.584 557.707 370.232C564.16 362.012 573.709 356.806 584.114 355.833C605.926 353.591 625.704 369.494 627.334 391.429C628.229 403.473 623.727 413.469 616.111 422.502C619.811 432.702 624.415 446.406 630.63 454.98C639.301 453.931 642.995 452.161 650.976 448.814C654.085 443.809 654.982 438.957 659.119 432.154C673.272 408.886 685.084 377.602 702.442 356.978C705.077 353.848 726.322 366.384 730.756 368.847C740.99 374.532 759.873 380.482 751.764 396.203C739.315 422.13 724.111 446.771 710.868 472.363C699.676 488.677 692.927 472.911 684.052 473.956C671.923 466.979 663.414 466.34 652.461 454.144C627.994 465.851 623.597 459.071 615.051 435.683C614.01 432.833 612.819 429.936 611.861 427.017ZM658.302 441.205C676.554 451.151 690.163 458.536 709.385 467.285C710.714 464.967 714.147 459.927 713.652 457.512L713.291 457.193L713.736 456.634L714.743 456.533C721.353 446.335 728.643 432.161 734.509 421.354C738.818 413.416 746.066 400.312 749.416 392.235C743.787 387.706 733.19 382.478 726.586 379.095L699.204 365.12L658.302 441.205ZM577.459 419.27C572.993 419.519 568.525 419.724 564.055 419.886C575.215 428.785 580.925 430.918 595.247 428.867C602.404 426.558 605.299 425.215 610.818 420.061C599.504 419.466 588.794 418.719 577.459 419.27ZM613.738 416.896C619.923 408.373 623.33 399.971 621.619 389.265C620.244 380.576 615.443 372.801 608.29 367.679C600.409 362.1 592.149 360.787 582.745 361.62C572.025 364.744 564.202 368.967 558.562 379.174C554.195 387.023 553.168 396.3 555.713 404.915C556.965 409.071 558.887 412.63 561.447 416.126C569.148 408.934 571.759 410.063 579.694 405.863C574.599 400.201 570.178 394.841 570.592 386.648C571.27 373.237 583.226 369.339 594.817 371.84C612.784 382.25 607.706 392.489 596.483 405.784C603.684 409.649 607.649 411.39 613.738 416.896Z"/><path fill="#E78838" transform="scale(13.6363 13.6363)" d="M696.993 412.766C699.95 407.437 704.599 398.658 708.536 394.267C709.95 395.343 711.587 396.608 713.086 397.555C716.128 399.476 721.679 400.131 722.323 404.346C722.782 407.343 720.308 411.359 719.084 413.865C717.785 416.859 716.508 419.98 714.99 422.861L710.122 420.143C707.005 418.843 700.151 414.627 696.993 412.766Z"/><path fill="#FFFEFE" transform="scale(13.6363 13.6363)" d="M712.145 414.193C710.224 412.022 706.787 411.064 706.352 409.324L707.246 408.76C710.816 408.932 714.94 411.288 718.087 412.971L714.7 415.421L712.145 414.193Z"/><path fill="#FFFEFE" transform="scale(13.6363 13.6363)" d="M705.786 401.686C709.984 402.789 711.643 403.924 711.31 408.225C707.033 406.944 705.111 406.279 705.786 401.686Z"/><path fill="#EDDCCD" transform="scale(13.6363 13.6363)" d="M712.145 414.193L714.7 415.421C713.808 417.398 713.58 417.741 712.297 419.515C710.81 419.021 710.817 419.128 709.744 418.027C709.947 416.21 710.716 415.917 712.145 414.193Z"/><path fill="#FFFEFE" transform="scale(13.6363 13.6363)" d="M717.637 401.751C719.404 401.899 719.968 401.874 721.201 403.043C721.815 404.633 721.366 405.463 720.899 407.13C719.216 406.228 719.048 406.1 717.564 404.884C716.863 402.944 716.943 403.95 717.637 401.751Z"/><path fill="#134F47" fill-opacity="0.95294118" transform="scale(13.6363 13.6363)" d="M713.291 457.193C708.981 455.88 664.759 433.315 663.97 432.345L664.517 432.176C671.261 434.619 681.85 440.365 688.546 443.741C696.412 447.706 706.25 452.288 713.736 456.634L713.291 457.193Z"/><path fill="#E78838" transform="scale(13.6363 13.6363)" d="M115.808 483.177C118.062 459.881 127.438 425.037 135.029 403.088C169.342 302.554 242.078 219.704 337.323 172.664C356.034 163.601 372.339 159.323 393.042 166.517C387.691 167.414 383.727 168.541 377.875 169.263C372.408 169.937 356.033 168.297 353.798 170.264L354.121 171.107C360.842 176.228 377.972 176.055 386.123 175.784L388.06 176.752C380.762 177.535 387.111 183.065 378.888 188.153C375.281 190.385 367.627 193.415 364.86 195.607C359.446 199.895 356.292 204.963 349.907 208.939C342.267 213.697 334.268 217.719 326.624 222.344C311.799 231.387 297.624 241.453 284.201 252.47C213.328 310.41 163.76 399.387 154.529 490.698C150.432 490.24 146.503 489.561 142.443 488.885C146.495 462.429 151.097 439.687 159.602 414.196C189.218 325.205 251.021 250.493 332.883 204.722C339.928 200.843 347.815 197.199 355.156 193.826C361.954 190.702 376.707 187.69 380.88 181.303C381.091 179.558 381.243 180.373 380.307 178.794C377.686 177.492 372.392 177.508 369.432 177.312C355.806 176.412 342.546 183.51 330.818 189.704C300.865 205.456 273.189 225.202 248.548 248.398C193.485 300.884 154.306 367.809 135.494 441.516C132.666 452.645 127.769 474.778 127.398 486.122C123.516 485.134 119.683 484.227 115.808 483.177Z"/><path fill="#1B9548" transform="scale(13.6363 13.6363)" d="M387.77 348.63C396.878 347.643 405.166 355.348 411.306 361.156C432.337 381.049 443.338 408.026 453.08 434.644L447.334 437.431C435.6 408.399 419.774 379.066 391.779 362.819C359.793 371.651 348.357 380.916 326.417 404.935C322.377 405.045 318.909 405.324 314.878 405.693C287.873 408.861 265.325 415.222 239.618 424.348C227.995 428.473 215.873 433.246 204.284 437.085C226.459 390.699 340.197 357.907 387.77 348.63Z"/><path fill="#1B9548" transform="scale(13.6363 13.6363)" d="M846.385 662.099C842.098 663.746 831.399 664.748 826.124 665.733C814.617 667.947 803.277 670.95 792.183 674.722C742.132 691.927 692.034 726.223 656.374 765.147C650.211 771.817 644.279 778.697 638.588 785.775C633.082 792.706 627.733 800.074 621.927 806.71C620.701 805.739 619.285 804.424 618.091 803.375C612.114 797.604 606.254 791.712 600.515 785.703C603.397 782.028 606.419 778.464 609.575 775.021C624.276 758.952 640.224 744.07 657.271 730.516C711.617 686.722 762.552 665.782 832.215 662.216C836.826 662.054 841.749 662.119 846.385 662.099Z"/><path fill="#1B9548" transform="scale(13.6363 13.6363)" d="M805.28 383.89C809.528 384.404 813.302 384.909 817.512 385.65C817.525 389.835 817.454 393.282 818.066 397.454L823.602 399.849C826.49 398.069 831.17 394.267 834.012 392.081C836.978 395.231 840.129 398.385 843.155 401.494C840.349 404.4 837.533 407.538 834.782 410.515L837.377 416.614C841.343 416.617 845.856 416.224 849.857 415.969L851.23 428.289C847.248 429.181 842.92 429.947 838.897 430.721L837.26 437.173C840.045 439.743 842.977 442.851 845.664 445.58C843.096 449.21 841.235 451.623 838.338 454.991C835.321 453.059 832.388 451.294 829.654 448.974C827.434 450.868 825.157 452.497 822.811 454.226C823.844 458.352 824.407 461.958 825.787 466.094C821.381 466.796 816.971 467.476 812.558 468.134C811.558 465.425 810.285 462.843 809.052 460.231C807.838 458.073 804.923 457.435 802.709 458.015C799.207 458.932 796.988 465.216 795.423 468.235L783.759 463.334C785.15 459.936 786.352 456.955 787.514 453.479C786.145 451.417 784.452 449.581 782.829 447.702C779.609 448.938 776.348 450.069 773.054 451.091C770.529 447.774 769.168 444.742 767.615 440.94C769.893 438.84 774.408 435.838 777.094 433.943L776.401 427.879C772.113 425.762 767.757 423.787 763.339 421.957C764.041 419.138 764.695 414.43 765.201 411.434C769.991 411.483 774.101 411.936 778.852 412.482C780.259 410.357 781.42 408.046 782.622 405.794C780.627 402.41 778.425 398.961 776.353 395.608C780.2 393.312 782.979 391.59 786.587 388.968C789.383 391.359 792.387 394.254 795.122 396.77C797.506 396.529 800.132 396.089 802.524 395.742C803.514 392.531 804.46 387.387 805.28 383.89ZM810.266 445.841C817.228 444.69 823.032 439.882 825.457 433.255C827.882 426.628 826.553 419.209 821.979 413.836C817.404 408.464 810.292 405.969 803.363 407.306C792.849 409.336 785.917 419.438 787.805 429.979C789.693 440.52 799.701 447.587 810.266 445.841Z"/><path fill="#1B9548" transform="scale(13.6363 13.6363)" d="M768.695 652.596C775.811 652.413 790.034 651.711 796.535 652.353L796.864 652.675C794.823 653.353 785.974 654.467 783.697 654.476C778.302 655.651 771.095 656.562 765.473 657.548C756.255 659.163 747.116 661.204 738.085 663.664C674.311 680.922 618.665 715.759 571.789 761.746C566.678 758.33 555.034 747.761 549.898 743.271C550.253 742.916 550.612 742.564 550.974 742.217C598.38 697.134 671.964 662.786 736.715 655.156C746.069 654.054 759.304 652.381 768.695 652.596Z"/><path fill="#E78838" transform="scale(13.6363 13.6363)" d="M336.199 564.571C347.253 563.692 351.129 564.856 359.981 571.446L359.954 571.001L359.917 570.258C359.811 568.388 359.512 567.39 360.339 565.71C362.991 565.19 373.194 565.437 376.992 565.215C376.771 574.191 376.643 583.17 376.608 592.149C376.609 602.524 377.41 615.436 375.185 625.222C370.651 645.16 346.725 648.028 330.117 644.357C325.19 643.268 320.32 642.392 316.652 639.092C315.682 638.219 316.369 636.676 316.584 635.841C318.489 632.279 320.121 629.519 322.278 626.098C333.775 631.285 356.665 638.448 358.961 618.878L359.478 614.654C355.643 617.693 352.149 619.865 347.381 621.141C340.284 622.979 332.746 621.901 326.449 618.147C306.961 606.769 306.987 576.137 328.275 566.935C330.977 565.767 333.346 565.227 336.199 564.571ZM346.771 607.373C354.754 606.208 360.299 598.817 359.184 590.827C358.07 582.837 350.715 577.246 342.718 578.309C334.648 579.381 328.995 586.818 330.119 594.881C331.243 602.943 338.716 608.549 346.771 607.373Z"/><path fill="#1B9548" transform="scale(13.6363 13.6363)" d="M743.464 542.742C749.436 543.023 755.031 543 761.006 542.976L761.033 623.006C757.77 623.185 746.973 623.585 744.394 622.859C743.499 621.242 744.131 619.483 743.989 617.565C742.43 617.714 739.264 620.648 737.314 621.664C730.465 625.234 722.775 624.47 715.685 622.566C695.935 614.175 690.713 589.86 704.083 574.07C708.962 568.34 715.973 564.854 723.487 564.423C731.095 563.968 737.804 566.394 743.532 571.351C743.586 561.814 743.564 552.278 743.464 542.742ZM731.189 609.232C739.359 607.967 744.969 600.334 743.737 592.158C742.505 583.983 734.895 578.343 726.714 579.542C718.487 580.748 712.808 588.411 714.047 596.633C715.286 604.855 722.972 610.504 731.189 609.232Z"/><path fill="#E78838" transform="scale(13.6363 13.6363)" d="M247.949 547.97C253.316 547.955 260.145 547.753 265.392 547.989L265.543 623.505C260.456 623.555 255.369 623.539 250.283 623.457C238.224 610.965 227.781 593.715 216.788 581.98L214.822 579.393L214.123 579.458L213.774 581.217C214.803 594.501 213.283 610.247 214.135 623.439L196.517 623.479L196.467 547.975C201.079 547.98 206.999 547.818 211.506 548.101C223.708 562.717 235.912 579.745 247.996 594.006L247.949 547.97Z"/><path fill="#1B9548" transform="scale(13.6363 13.6363)" d="M700.478 646.303C713.679 645.602 723.49 646.111 736.515 646.251C731.345 647.649 722.398 648.579 716.722 649.378C708.308 650.547 699.949 652.081 691.669 653.979C636.69 666.318 585.343 691.301 541.704 726.947C538.976 729.002 535.969 731.6 533.3 733.803C526.963 729.755 519.979 724.352 513.556 720.032C521.837 711.804 538.651 701.096 548.59 695.069C597.097 665.652 644.057 650.225 700.478 646.303Z"/><path fill="#E78838" transform="scale(13.6363 13.6363)" d="M800.118 244.063C803.324 245.487 809.413 252.009 812.012 254.834C861.131 308.676 895.758 374.12 912.641 445.018C914.65 453.65 919.336 472.672 918.975 481.322C915.087 480.724 911.212 480.044 907.352 479.285C897.753 414.574 872.36 353.225 833.419 300.659C827.359 292.353 821.006 284.264 814.373 276.407C809.827 271.02 803.232 263.732 799.188 258.218L798.836 257.73C799.14 253.295 799.687 248.509 800.118 244.063Z"/><path fill="#1B9548" transform="scale(13.6363 13.6363)" d="M472.643 935.84C501.289 938.51 530.119 938.538 558.77 935.923C555.025 948.157 546.152 960.804 537.849 970.39C531.113 978.547 523.4 985.58 515.647 992.732C514.448 991.8 513.259 990.854 512.08 989.895C495.958 976.783 474.821 957.232 472.643 935.84Z"/><path fill="#1B9548" transform="scale(13.6363 13.6363)" d="M305.887 876.62C308.14 877.605 311.539 879.604 313.625 880.984C335.657 895.571 359.199 905.342 383.746 915.081C379.839 921.612 372.952 925.701 366.555 929.447C352.373 937.409 337.025 943.088 321.076 946.273C310.728 926.542 299.805 898.777 305.887 876.62Z"/><path fill="#1B9548" transform="scale(13.6363 13.6363)" d="M386.883 916.113C412.06 923.869 443.291 932.621 469.558 935.138C462.06 947.679 459.324 950.445 448.188 959.496C438.814 966.611 425.324 975.421 414.931 980.825C402.503 964.613 381.799 937.43 386.883 916.113Z"/><path fill="#1B9548" transform="scale(13.6363 13.6363)" d="M722.213 879.625C727.89 883.016 726.33 890.023 725.572 895.751C723.209 913.611 717.762 931.752 709.11 947.578C693.497 943.134 682.336 938.885 667.804 932.059C658.52 927.056 653.672 923.66 646.435 916.154C654.478 912.662 662.746 909.459 670.687 905.837C688.207 897.794 705.396 889.05 722.213 879.625Z"/><path fill="#1B9548" transform="scale(13.6363 13.6363)" d="M185.285 755.255C187.636 756.693 191.414 762.141 192.966 764.549C205.58 784.115 220.752 800.907 236.084 818.39L235.622 818.954C230.301 825.378 227.703 825.706 219.74 826.429C212.043 826.762 205.199 826.982 197.444 826.546C187.836 826.005 178.102 824.715 168.519 824.415C168.593 801.744 169.956 773.656 185.285 755.255Z"/><path fill="#1B9548" transform="scale(13.6363 13.6363)" d="M790.987 824.296C792.715 824.622 794.532 826.51 795.242 828.019C803.909 846.447 797.995 873.095 793.656 892.054C776.647 892.069 759.719 889.721 743.356 885.079C736.21 882.537 733.126 880.488 726.924 876.104C735.259 868.733 746.518 861.537 755.405 854.451C767.651 844.687 779.163 834.56 790.987 824.296Z"/><path fill="#1B9548" transform="scale(13.6363 13.6363)" d="M847.448 753.327C861.102 765.061 864.443 805.358 865.073 823.004C848.776 827.074 831.517 827.272 814.886 826.4C805.758 825.282 803.743 824.513 795.575 820.356C810.105 805.186 824.101 788.809 836.223 771.621C840.158 766.04 843.487 759.203 847.448 753.327Z"/><path fill="#1B9548" transform="scale(13.6363 13.6363)" d="M885.028 679.675C903.89 691.46 912.635 721.713 917.84 742.543C908.15 746.723 893.885 750.752 883.551 752.33C874.267 753.904 865.862 753.939 856.543 753.461C854.243 751.802 853.223 750.885 851.191 748.982C852.625 745.924 854.996 741.536 856.755 738.608C868.168 719.622 875.816 699.55 885.028 679.675Z"/><path fill="#1B9548" transform="scale(13.6363 13.6363)" d="M906.781 595.657C929.384 606.617 939.599 630.426 951.386 650.426C943.342 656.234 932.811 661.974 924.007 666.476C916.872 669.848 896.086 679.485 888.97 673.52C887.79 671.474 888.741 668.761 889.471 666.664C897.572 643.375 902.152 619.84 906.781 595.657Z"/><path fill="#1B9548" transform="scale(13.6363 13.6363)" d="M642.487 917.148C643.661 917.524 644.105 918.888 644.139 919.994C644.769 940.527 628.55 963.835 615.742 978.809C604.231 972.818 593.944 967.03 583.243 959.754C573.081 952.549 566.988 946.254 560.697 935.693C565.437 935.342 574.18 933.69 578.957 932.857C591.643 930.771 604.217 928.052 616.632 924.71C625.309 922.363 633.817 919.524 642.487 917.148Z"/><path fill="#1B9548" transform="scale(13.6363 13.6363)" d="M239.999 822.685C242.75 824.005 247.09 828.158 249.362 830.465C266.084 847.448 285.21 860.981 303.994 875.504C298.395 880.036 295.573 881.543 288.878 884.041C275.387 888.568 253.569 891.278 238.897 892.601C234.111 876.102 227.616 835.998 239.999 822.685Z"/><path fill="#1B9548" transform="scale(13.6363 13.6363)" d="M145.439 677.391C147.452 679.164 150.243 686.185 151.238 688.809C159.207 709.822 171.929 728.749 181.594 748.719C171.318 755.673 165.682 754.454 154.123 752.655C142.401 751.06 127.405 746.13 116.419 741.851C122.832 715.313 126.22 699.304 145.439 677.391Z"/><path fill="#1B9548" transform="scale(13.6363 13.6363)" d="M910.548 514.3C928.89 515.044 938.074 520.72 949.53 535.342C954.193 541.293 958.357 547.261 962.504 553.598C956.018 561.85 949.858 567.798 941.822 574.501C934.46 581.106 923.488 587.863 914.215 591.181C911.883 590.265 909.799 588.982 907.616 587.744C909.786 563.325 910.764 538.815 910.548 514.3Z"/><path fill="#1B9548" transform="scale(13.6363 13.6363)" d="M108.544 513.5C113.657 514.639 117.873 516.614 122.635 518.673C121.852 527.174 121.659 535.718 122.057 544.245C122.446 552.759 124.725 580.938 122.967 587.872C115.573 594.694 101.526 582.299 95.7576 577.685C84.4814 568.925 77.2797 562.45 67.2752 552.522C75.055 542.663 97.6488 519.513 108.544 513.5Z"/><path fill="#1B9548" transform="scale(13.6363 13.6363)" d="M124.254 594.923C124.559 595.184 124.864 595.444 125.169 595.705C127.58 607.299 131.1 623.629 133.869 634.616C137.075 647.34 141.525 659.22 144.053 670.92C130.896 676.477 123.204 671.58 111.337 666.004C101.554 661.595 92.0855 656.519 82.9984 650.812C91.2764 631.02 106.31 606.779 124.254 594.923Z"/><path fill="#1B9548" transform="scale(13.6363 13.6363)" d="M500.948 547.965C507.288 548.118 513.562 547.77 519.99 547.974C524.782 558.792 529.432 569.673 533.941 580.612C536.552 586.929 539.438 594.767 542.355 600.733C543.301 598.029 544.329 595.458 545.52 592.852C552.285 578.042 558.384 562.915 564.989 548.044C570.937 547.985 576.886 547.974 582.834 548.012C580.531 553.2 578.288 558.414 576.106 563.654L550.467 623.495C545.289 623.101 537.45 623.403 532.102 623.475C529.641 616.576 526.001 608.381 523.14 601.543C515.665 583.676 507.838 566.091 500.948 547.965Z"/><path fill="#E78838" transform="scale(13.6363 13.6363)" d="M414.753 564.589C423.718 563.653 433.528 565.027 440.191 571.632C448.058 579.431 448.629 589.173 449.568 599.448L405.682 599.445C412.395 615.187 423.907 610.37 435.759 605.913C436.934 605.471 438.462 607 439.422 607.726C441.641 609.972 443.735 612.311 445.863 614.644C434.704 625.225 416.934 627.424 403.513 619.949C384.64 609.437 382.666 580.908 401.742 569.479C406.29 566.754 409.634 565.767 414.753 564.589ZM405.982 589.465L421.375 589.369C425.432 589.331 429.611 589.236 433.657 589.35C429.299 580.594 427.922 578.351 417.783 577.625C410.086 579.788 408.808 582.215 405.982 589.465Z"/><path fill="#1B9548" transform="scale(13.6363 13.6363)" d="M800.037 564.636C801.006 564.525 801.978 564.446 802.953 564.4C825.755 563.454 833.339 579.267 834.024 599.108C820.218 599.447 803.053 599.737 789.304 599.315C789.823 600.303 790.367 601.277 790.937 602.236C798.478 614.772 810.404 611.461 820.729 605.117L822.821 607.048L830.182 614.61C802.615 639.932 757.786 613.085 777.782 577.471C781.985 569.984 792.098 566.248 800.037 564.636ZM789.61 589.912C793.985 589.311 802.91 589.541 807.625 589.551L817.982 589.695C813.904 580.226 811.515 577.568 800.63 578.032C794.716 580.304 793.184 581.763 790.517 587.793C790.208 588.496 789.905 589.202 789.61 589.912Z"/><path fill="#1B9548" transform="scale(13.6363 13.6363)" d="M610.356 564.674C618.396 563.914 627.918 566.539 633.701 572.345C641.537 580.21 642.407 588.664 642.449 599.047C627.936 599.069 613.424 599.232 598.915 599.536C607.142 614.618 616.334 612.412 629.715 605.708L633.107 608.837C635.494 611.003 636.855 612.17 638.868 614.693C633.556 619.542 626.952 622.748 619.856 623.923C577.779 630.976 564.256 571.311 610.356 564.674ZM598.971 589.508L613.375 589.515L626.859 589.461C623.273 581.662 621.224 578.029 611.98 577.62C603.902 579.159 601.475 581.557 598.971 589.508Z"/><path fill="#E78838" transform="scale(13.6363 13.6363)" d="M440.572 149C442.375 139.566 457.219 128.228 464.812 123.078C465.716 122.459 466.634 121.86 467.565 121.284C463.527 129.36 448.551 143.87 441.423 149.422C441.923 150.173 441.879 150.475 442.662 150.439C451.788 150.016 463.512 146.165 472.18 144.423C476.862 143.482 481.598 142.829 486.361 142.467C495.673 141.756 508.507 141.932 517.879 142.149C560.17 142.978 602.122 149.891 642.443 162.678C650.387 165.121 664.603 169.571 672.047 173.121C670.025 176.199 667.232 179.619 664.533 182.121C611.975 162.575 549.169 150.65 493.243 153.901C487.977 154.207 473.281 154.913 469.046 156.069L468.237 154.346C476.075 151.865 479.834 149.55 486.581 144.818C480.47 146.189 475.166 147.438 469.175 149.116C463.211 150.786 455.994 153.299 450.035 154.351C447.432 153.557 443.752 152.625 441.551 151.148C440.474 150.425 440.856 150.622 440.572 149Z"/><path fill="#E78838" transform="scale(13.6363 13.6363)" d="M796.225 277.259C803.652 283.8 813.395 296.319 819.459 304.264C850.852 345.755 873.409 393.239 885.739 443.785C887.595 451.353 891.753 469.694 891.835 477.187L891.03 477.759L880.709 475.87C872.256 422.752 852.183 372.155 821.921 327.688C812.623 314.242 803.631 304.024 793.744 291.286C794.13 287.225 795.428 281.399 796.225 277.259Z"/><path fill="#E78838" transform="scale(13.6363 13.6363)" d="M456.436 165.681C464.896 164.829 478.363 167.131 487.28 167.367C503.111 167.787 519.52 167.585 535.282 168.711C567.529 171.307 599.411 177.305 630.396 186.606C637.587 188.726 648.955 192.092 655.663 195.189C653.517 197.96 651.354 201.902 649.54 204.995C641.928 202.313 633.118 199.784 625.339 197.363C592.732 187.893 562.23 181.592 528.231 179.699C519.932 179.237 463.668 179.049 460.168 174.264C461.389 174.062 461.221 174.071 462.348 174.308C470.39 175.999 482.96 174.112 491.235 173.269C475.339 168.454 461.881 170.059 445.592 167.261C448.807 166.567 453.091 166.12 456.436 165.681Z"/><path fill="#E78838" transform="scale(13.6363 13.6363)" d="M493.199 564.608C495.709 564.45 495.655 564.061 497.581 565.016C499.561 568.287 498.531 576.149 498.449 580.538C477.024 579.22 478.802 592.099 478.998 608.764C479.055 613.591 478.683 618.635 479.342 623.432C474.308 623.53 467.472 623.826 462.491 623.248C461.746 623.161 461.841 622.88 461.444 622.062L460.958 565.134C465.265 565.255 475.246 563.938 477.752 566.476C478.705 568.478 478.187 570.634 477.968 572.95C482.442 567.345 486.569 565.935 493.199 564.608Z"/><path fill="#1B9548" transform="scale(13.6363 13.6363)" d="M686.794 564.61C689.008 564.637 688.525 564.32 690.177 565.326C692 568.625 691.08 576.241 690.863 580.257C671.66 579.418 670.71 590.476 671.445 606.213C671.691 611.476 671.562 617.878 671.611 623.255C667.856 623.368 657.323 623.879 654.47 622.883C654.901 604.365 654.462 584.271 654.414 565.633C659.946 565.539 665.586 565.566 671.128 565.54L671.203 572.687C676.416 566.903 679.513 566.092 686.794 564.61Z"/><path fill="#E78838" transform="scale(13.6363 13.6363)" d="M420.758 154.365C431.038 154.078 439.609 162.171 439.911 172.45C440.213 182.73 432.132 191.312 421.853 191.629C411.553 191.947 402.949 183.846 402.646 173.545C402.344 163.244 410.457 154.653 420.758 154.365Z"/><path fill="#E78838" transform="scale(13.6363 13.6363)" d="M282.434 565.084C288.302 565.164 294.169 565.294 300.035 565.474C299.982 583.546 299.501 605.476 300.296 623.336C295.261 623.651 287.843 623.472 282.628 623.496C282.716 604.025 282.651 584.554 282.434 565.084Z"/><path fill="#1B9548" transform="scale(13.6363 13.6363)" d="M587.05 35.1546C598.468 34.4668 648.015 39.9268 648.845 55.2803C647.925 57.4757 648.365 56.7206 646.366 58.3055C630.829 61.7987 603.913 53.4398 590.99 44.5779C588.563 42.9137 585.65 40.7744 585.142 37.7491C585.826 35.7454 585.278 36.6256 587.05 35.1546Z"/><path fill="#1B9548" transform="scale(13.6363 13.6363)" d="M515.081 306.207C519.96 305.763 528.544 305.934 533.723 305.878C527.409 307.833 520.86 309.448 514.462 311.451C494.693 317.641 481.504 326.446 466.353 340.189C462.683 335.869 458.967 331.24 454.841 327.392C449.09 321.673 441.218 317.52 434.175 313.503C449.145 314.138 455.204 313.656 467.702 322.966C481.608 310.365 496.741 307.339 515.081 306.207Z"/><path fill="#1B9548" transform="scale(13.6363 13.6363)" d="M658.545 58.5413C680.618 53.6188 713.019 65.1637 727.933 81.8886C704.099 83.7382 681.945 79.0151 662.644 63.6908C661.513 62.7925 660.377 61.4994 659.447 60.4C658.979 59.8677 658.839 59.2638 658.545 58.5413Z"/><path fill="#1B9548" transform="scale(13.6363 13.6363)" d="M804.771 94.677C818.141 93.4039 855.054 102.304 859.853 115.763C859.429 118.865 856.375 119.24 853.588 119.489C831.268 118.288 812.357 111.81 795.869 96.146C798.419 95.5723 802.118 95.09 804.771 94.677Z"/><path fill="#1B9548" transform="scale(13.6363 13.6363)" d="M882.853 118.687C883.943 118.62 885.035 118.581 886.127 118.57C903.727 118.337 925.796 127.704 938.286 139.921C935.138 141.281 934.094 141.551 930.812 142.337C927.683 142.506 921.624 142.678 918.716 142.262C911.304 141.201 873.795 130.008 875.129 121.419C877.33 118.924 879.573 119.048 882.853 118.687Z"/><path fill="#1B9548" transform="scale(13.6363 13.6363)" d="M361.858 263.206C368.453 262.75 377.065 262.978 383.731 263.039C378.221 265.033 372.558 266.627 366.938 268.73C353.025 273.937 343.827 280.386 332.511 289.477C330.449 286.393 326.834 282.309 324.255 279.631C316.969 272.838 310.848 270.07 301.607 266.735C316.542 266.466 322.527 267.018 334.733 275.432C343.011 266.71 350.241 264.263 361.858 263.206Z"/><path fill="#1B9548" transform="scale(13.6363 13.6363)" d="M550.268 254.835C561.756 244.094 580.546 241.791 595.524 244.281C573.041 252.182 569.699 253.509 550.776 268.009C542.064 258.867 539.722 256.999 528.811 250.436C527.539 249.805 526.743 249.57 525.934 248.406C527.422 247.611 528.146 247.951 530.098 247.978C539.652 248.351 542.512 248.718 550.268 254.835Z"/><path fill="#21A34E" transform="scale(13.6363 13.6363)" d="M528.811 250.436C527.539 249.805 526.743 249.57 525.934 248.406C527.422 247.611 528.146 247.951 530.098 247.978L528.811 250.436Z"/><path fill="#E78838" transform="scale(13.6363 13.6363)" d="M287.807 538.604C293.094 537.967 298.459 538.79 301.115 544.054C302.17 546.099 302.354 548.483 301.625 550.666C300.326 554.544 297.655 555.818 294.255 557.422C280.573 558.359 274.33 545.765 287.807 538.604Z"/><path fill="#1B9548" transform="scale(13.6363 13.6363)" d="M823.425 541.771L824.994 541.98L825.276 542.478C820.982 546.275 811.843 554.977 807.549 557.977C804.098 558.077 800.647 558.155 797.195 558.21C796.283 558.237 796.773 558.334 795.788 557.697C796.02 555.221 805.894 544.907 808.29 542.244C812.763 541.848 818.829 541.881 823.425 541.771Z"/><path fill="#E78838" transform="scale(13.6363 13.6363)" d="M373.618 122.412C382.642 125.693 399.548 143.94 405.068 152.3C397.458 150.918 377.334 129.762 373.618 122.412Z"/><path fill="#E78838" transform="scale(13.6363 13.6363)" d="M446.761 107.359C447.741 111.337 435.489 138.285 433.014 143.896C431.874 144.752 431.78 144.423 429.97 144.387C429.731 143.881 429.442 143.047 429.235 142.502C429.944 137.373 442.763 111.074 446.761 107.359Z"/><path fill="#E78838" transform="scale(13.6363 13.6363)" d="M354.986 142.479C360.616 142.688 390.377 151.762 395.006 156.528C396.219 157.775 395.838 157.625 395.787 159.279C395.095 159.438 394.546 159.513 393.846 159.62C380.424 152.602 368.788 151.371 354.986 142.479Z"/><path fill="#E78838" transform="scale(13.6363 13.6363)" d="M432.829 197.212C440.145 200.79 446.641 224.054 448.125 231.654C442.24 227.594 433.009 204.896 432.829 197.212Z"/><path fill="#E78838" transform="scale(13.6363 13.6363)" d="M421.47 202.354C426.447 207.041 426.15 233.108 424.427 240.083C420.255 236.545 420.027 208.296 421.47 202.354Z"/><path fill="#E78838" transform="scale(13.6363 13.6363)" d="M394.036 107.654C401.415 110.46 409.913 137.809 411.66 145.162C405.899 141.736 396.659 114.945 394.036 107.654Z"/><path fill="#E78838" transform="scale(13.6363 13.6363)" d="M445.613 180.047C455.566 181.891 474.578 188.548 481.514 195.967L480.738 195.859C473.614 194.839 449.69 185.542 445.613 180.047Z"/><path fill="#E78838" transform="scale(13.6363 13.6363)" d="M441.543 191.854C455.014 198.997 460.394 205.038 468.428 217.768C461.429 216.119 445.859 198.308 441.543 191.854Z"/><path fill="#E78838" transform="scale(13.6363 13.6363)" d="M420.562 101.158C422.29 107.807 423.933 125.277 423.433 132.387C422.284 134.243 422.547 134.85 422.549 137.131L422.544 137.869C422.545 138.017 422.547 138.164 422.548 138.312L422.325 140.158C421.878 136.42 422.588 128.136 420.995 126.141C420.245 127.056 420.611 130.562 420.105 132.365L419.977 144.625C418.207 140.607 418.341 132.077 418.304 127.493C418.384 119.361 418.958 109.103 420.562 101.158Z"/><path fill="#F68F31" transform="scale(13.6363 13.6363)" d="M418.304 127.493L419.066 126.578C420.256 127.948 419.655 130.517 420.105 132.365L419.977 144.625C418.207 140.607 418.341 132.077 418.304 127.493Z"/><path fill="#E78838" transform="scale(13.6363 13.6363)" d="M409.444 199.222C415.506 204.389 404.602 229.058 401.184 234.725L400.536 234.807C399.701 230.938 407.93 205.142 409.444 199.222Z"/><path fill="#E78838" transform="scale(13.6363 13.6363)" d="M392.857 187.679L395.024 187.836C391.614 196.715 364.423 205.49 355.662 208.717C368.4 198.662 380.553 196.885 392.857 187.679Z"/><path fill="#E78838" transform="scale(13.6363 13.6363)" d="M399.404 195.862C399.838 197.704 397.775 200.651 396.767 202.489C398.886 201.261 401.269 199.369 403.271 197.884C399.06 205.12 388.577 215.468 382.361 221.138C380.416 223.021 378.582 224.668 376.558 226.457C379.054 221.674 395.261 200.271 399.404 195.862Z"/><path fill="#F68F31" transform="scale(13.6363 13.6363)" d="M469.046 156.069C462.972 157.729 454.685 161.005 448.811 162.052L448.755 161.634L448.544 162.081L448.243 162.076L448.696 161.565L448.417 161.974L448.822 161.927L448.75 161.53C454.147 158.881 462.408 156.281 468.237 154.346L469.046 156.069Z"/><path fill="#F68F31" transform="scale(13.6363 13.6363)" d="M384.413 188.693C387.026 187.023 391.033 184.121 393.899 183.592L394.922 183.978C395.491 185.641 395.288 186.12 395.024 187.836L392.857 187.679L392.342 186.73C390.044 186.391 386.729 187.859 384.413 188.693Z"/><path fill="#21A34E" transform="scale(13.6363 13.6363)" d="M981.089 519.167L991.594 524.447C986.492 523.115 981.409 521.711 976.347 520.235C978.815 520.203 978.92 520.227 981.089 519.167Z"/><path fill="#215D50" fill-opacity="0.81568629" transform="scale(13.6363 13.6363)" d="M639.301 76.4488C641.989 75.9928 645.667 75.5614 648.291 76.3813L648.456 77.0759C645.841 76.5757 642.552 76.4164 639.895 76.6089L639.301 76.4488Z"/><path fill="#FFFEFE" fill-opacity="0.015686275" transform="scale(13.6363 13.6363)" d="M213.774 581.217L214.123 579.458L214.822 579.393L216.788 581.98L215.89 582.349L213.774 581.217Z"/><path fill="#EDDCCD" fill-opacity="0.91764706" transform="scale(13.6363 13.6363)" d="M423.465 137.558C423.66 139.332 423.955 140.295 423.226 141.913C422.289 141.222 422.707 141.642 422.325 140.158L422.548 138.312L423.465 137.558Z"/><path fill="#FFB981" fill-opacity="0.97647059" transform="scale(13.6363 13.6363)" d="M422.548 138.312C422.547 138.164 422.545 138.017 422.544 137.869L422.549 137.131C422.547 134.85 422.284 134.243 423.433 132.387L423.465 137.558L422.548 138.312Z"/><path fill="#FFB981" fill-opacity="0.87843138" transform="scale(13.6363 13.6363)" d="M386.123 175.784C387.945 175.518 388.409 175.211 390.064 175.698C389.25 176.169 388.923 176.378 388.06 176.752L386.123 175.784Z"/><path fill="#215D50" fill-opacity="0.7019608" transform="scale(13.6363 13.6363)" d="M648.291 76.3813C649.779 76.7082 651.036 76.8863 652.396 77.5755L652.288 78.0183C650.992 77.7547 649.737 77.4069 648.456 77.0759L648.291 76.3813Z"/></svg>