<?xml version="1.0" encoding="utf-8" ?><svg xmlns="http://www.w3.org/2000/svg" viewBox="2429 7092 9194 1963"><path fill="#1B9548" transform="scale(13.6363 13.6363)" d="M247.949 547.97C253.316 547.955 260.145 547.753 265.392 547.989L265.543 623.505C260.456 623.555 255.369 623.539 250.283 623.457C238.224 610.965 227.781 593.715 216.788 581.98L214.822 579.393L214.123 579.458L213.774 581.217C214.803 594.501 213.283 610.247 214.135 623.439L196.517 623.479L196.467 547.975C201.079 547.98 206.999 547.818 211.506 548.101C223.708 562.717 235.912 579.745 247.996 594.006L247.949 547.97Z"/><path fill="#1B9548" transform="scale(13.6363 13.6363)" d="M282.434 565.084C288.302 565.164 294.169 565.294 300.035 565.474C299.982 583.546 299.501 605.476 300.296 623.336C295.261 623.651 287.843 623.472 282.628 623.496C282.716 604.025 282.651 584.554 282.434 565.084Z"/><path fill="#1B9548" transform="scale(13.6363 13.6363)" d="M287.807 538.604C293.094 537.967 298.459 538.79 301.115 544.054C302.17 546.099 302.354 548.483 301.625 550.666C300.326 554.544 297.655 555.818 294.255 557.422C280.573 558.359 274.33 545.765 287.807 538.604Z"/><path fill="#1B9548" transform="scale(13.6363 13.6363)" d="M336.199 564.571C347.253 563.692 351.129 564.856 359.981 571.446L359.954 571.001L359.917 570.258C359.811 568.388 359.512 567.39 360.339 565.71C362.991 565.19 373.194 565.437 376.992 565.215C376.771 574.191 376.643 583.17 376.608 592.149C376.609 602.524 377.41 615.436 375.185 625.222C370.651 645.16 346.725 648.028 330.117 644.357C325.19 643.268 320.32 642.392 316.652 639.092C315.682 638.219 316.369 636.676 316.584 635.841C318.489 632.279 320.121 629.519 322.278 626.098C333.775 631.285 356.665 638.448 358.961 618.878L359.478 614.654C355.643 617.693 352.149 619.865 347.381 621.141C340.284 622.979 332.746 621.901 326.449 618.147C306.961 606.769 306.987 576.137 328.275 566.935C330.977 565.767 333.346 565.227 336.199 564.571ZM346.771 607.373C354.754 606.208 360.299 598.817 359.184 590.827C358.07 582.837 350.715 577.246 342.718 578.309C334.648 579.381 328.995 586.818 330.119 594.881C331.243 602.943 338.716 608.549 346.771 607.373Z"/><path fill="#1B9548" transform="scale(13.6363 13.6363)" d="M414.753 564.589C423.718 563.653 433.528 565.027 440.191 571.632C448.058 579.431 448.629 589.173 449.568 599.448L405.682 599.445C412.395 615.187 423.907 610.37 435.759 605.913C436.934 605.471 438.462 607 439.422 607.726C441.641 609.972 443.735 612.311 445.863 614.644C434.704 625.225 416.934 627.424 403.513 619.949C384.64 609.437 382.666 580.908 401.742 569.479C406.29 566.754 409.634 565.767 414.753 564.589ZM405.982 589.465L421.375 589.369C425.432 589.331 429.611 589.236 433.657 589.35C429.299 580.594 427.922 578.351 417.783 577.625C410.086 579.788 408.808 582.215 405.982 589.465Z"/><path fill="#1B9548" transform="scale(13.6363 13.6363)" d="M493.199 564.608C495.709 564.45 495.655 564.061 497.581 565.016C499.561 568.287 498.531 576.149 498.449 580.538C477.024 579.22 478.802 592.099 478.998 608.764C479.055 613.591 478.683 618.635 479.342 623.432C474.308 623.53 467.472 623.826 462.491 623.248C461.746 623.161 461.841 622.88 461.444 622.062L460.958 565.134C465.265 565.255 475.246 563.938 477.752 566.476C478.705 568.478 478.187 570.634 477.968 572.95C482.442 567.345 486.569 565.935 493.199 564.608Z"/><path fill="#1B9548" transform="scale(13.6363 13.6363)" d="M500.948 547.965C507.288 548.118 513.562 547.77 519.99 547.974C524.782 558.792 529.432 569.673 533.941 580.612C536.552 586.929 539.438 594.767 542.355 600.733C543.301 598.029 544.329 595.458 545.52 592.852C552.285 578.042 558.384 562.915 564.989 548.044C570.937 547.985 576.886 547.974 582.834 548.012C580.531 553.2 578.288 558.414 576.106 563.654L550.467 623.495C545.289 623.101 537.45 623.403 532.102 623.475C529.641 616.576 526.001 608.381 523.14 601.543C515.665 583.676 507.838 566.091 500.948 547.965Z"/><path fill="#1B9548" transform="scale(13.6363 13.6363)" d="M610.356 564.674C618.396 563.914 627.918 566.539 633.701 572.345C641.537 580.21 642.407 588.664 642.449 599.047C627.936 599.069 613.424 599.232 598.915 599.536C607.142 614.618 616.334 612.412 629.715 605.708L633.107 608.837C635.494 611.003 636.855 612.17 638.868 614.693C633.556 619.542 626.952 622.748 619.856 623.923C577.779 630.976 564.256 571.311 610.356 564.674ZM598.971 589.508L613.375 589.515L626.859 589.461C623.273 581.662 621.224 578.029 611.98 577.62C603.902 579.159 601.475 581.557 598.971 589.508Z"/><path fill="#1B9548" transform="scale(13.6363 13.6363)" d="M686.794 564.61C689.008 564.637 688.525 564.32 690.177 565.326C692 568.625 691.08 576.241 690.863 580.257C671.66 579.418 670.71 590.476 671.445 606.213C671.691 611.476 671.562 617.878 671.611 623.255C667.856 623.368 657.323 623.879 654.47 622.883C654.901 604.365 654.462 584.271 654.414 565.633C659.946 565.539 665.586 565.566 671.128 565.54L671.203 572.687C676.416 566.903 679.513 566.092 686.794 564.61Z"/><path fill="#1B9548" transform="scale(13.6363 13.6363)" d="M743.464 542.742C749.436 543.023 755.031 543 761.006 542.976L761.033 623.006C757.77 623.185 746.973 623.585 744.394 622.859C743.499 621.242 744.131 619.483 743.989 617.565C742.43 617.714 739.264 620.648 737.314 621.664C730.465 625.234 722.775 624.47 715.685 622.566C695.935 614.175 690.713 589.86 704.083 574.07C708.962 568.34 715.973 564.854 723.487 564.423C731.095 563.968 737.804 566.394 743.532 571.351C743.586 561.814 743.564 552.278 743.464 542.742ZM731.189 609.232C739.359 607.967 744.969 600.334 743.737 592.158C742.505 583.983 734.895 578.343 726.714 579.542C718.487 580.748 712.808 588.411 714.047 596.633C715.286 604.855 722.972 610.504 731.189 609.232Z"/><path fill="#1B9548" transform="scale(13.6363 13.6363)" d="M800.037 564.636C801.006 564.525 801.978 564.446 802.953 564.4C825.755 563.454 833.339 579.267 834.024 599.108C820.218 599.447 803.053 599.737 789.304 599.315C789.823 600.303 790.367 601.277 790.937 602.236C798.478 614.772 810.404 611.461 820.729 605.117L822.821 607.048L830.182 614.61C802.615 639.932 757.786 613.085 777.782 577.471C781.985 569.984 792.098 566.248 800.037 564.636ZM789.61 589.912C793.985 589.311 802.91 589.541 807.625 589.551L817.982 589.695C813.904 580.226 811.515 577.568 800.63 578.032C794.716 580.304 793.184 581.763 790.517 587.793C790.208 588.496 789.905 589.202 789.61 589.912Z"/><path fill="#1B9548" transform="scale(13.6363 13.6363)" d="M823.425 541.771L824.994 541.98L825.276 542.478C820.982 546.275 811.843 554.977 807.549 557.977C804.098 558.077 800.647 558.155 797.195 558.21C796.283 558.237 796.773 558.334 795.788 557.697C796.02 555.221 805.894 544.907 808.29 542.244C812.763 541.848 818.829 541.881 823.425 541.771Z"/></svg>